<svg xmlns="http://www.w3.org/2000/svg" viewBox="0 0 105.99 89.88"><defs><style>.cls-1{isolation:isolate;}.cls-2{fill:#eaa928;}.cls-3{fill:#fff;}.cls-4{fill:#ff47da;mix-blend-mode:multiply;}.cls-5{fill:#3b6aeb;}</style></defs><title>bshape2</title><g class="cls-1"><g id="Layer_2" data-name="Layer 2"><g id="OBJECTS"><rect class="cls-2" x="17.49" y="0.4" width="69.37" height="88.71" rx="2.13"/><path class="cls-3" d="M69.49,22.71c1.93,0,3.5-2,3.5-4.49v-.74C73,15,71.42,13,69.49,13H59.39V10.88c0-2.47-1.57-4.48-3.51-4.48H52.77c-1.94,0-3.51,2-3.51,4.48V13H39.16c-1.94,0-3.5,2-3.5,4.49v.74c0,2.48,1.56,4.49,3.5,4.49h10.1V30.8H39.16c-1.94,0-3.5,2-3.5,4.48V36c0,2.47,1.56,4.48,3.5,4.48h10.1V48.6H39.16c-1.94,0-3.5,2-3.5,4.48v.75c0,2.48,1.56,4.48,3.5,4.48h10.1v8.1H39.16c-1.94,0-3.5,2-3.5,4.48v.74c0,2.48,1.56,4.49,3.5,4.49h10.1v2.51c0,2.47,1.57,4.48,3.51,4.48h3.11c1.94,0,3.51-2,3.51-4.48V76.12h10.1c1.93,0,3.5-2,3.5-4.48v-.75c0-2.48-1.57-4.48-3.5-4.48H59.39v-8.1h10.1c1.93,0,3.5-2,3.5-4.48v-.75c0-2.47-1.57-4.48-3.5-4.48H59.39V40.51h10.1c1.93,0,3.5-2,3.5-4.48v-.75c0-2.48-1.57-4.48-3.5-4.48H59.39V22.71Z"/><path class="cls-4" d="M67.34,22.71c1.93,0,3.5-2,3.5-4.49v-.74c0-2.48-1.57-4.49-3.5-4.49H57.24V10.88c0-2.47-1.57-4.48-3.51-4.48H50.62c-1.94,0-3.51,2-3.51,4.48V13H37c-1.94,0-3.5,2-3.5,4.49v.74c0,2.48,1.56,4.49,3.5,4.49h10.1V30.8H37c-1.94,0-3.5,2-3.5,4.48V36c0,2.47,1.56,4.48,3.5,4.48h10.1V48.6H37c-1.94,0-3.5,2-3.5,4.48v.75c0,2.48,1.56,4.48,3.5,4.48h10.1v8.1H37c-1.94,0-3.5,2-3.5,4.48v.74c0,2.48,1.56,4.49,3.5,4.49h10.1v2.51c0,2.47,1.57,4.48,3.51,4.48h3.11c1.94,0,3.51-2,3.51-4.48V76.12h10.1c1.93,0,3.5-2,3.5-4.49v-.74c0-2.48-1.57-4.48-3.5-4.48H57.24v-8.1h10.1c1.93,0,3.5-2,3.5-4.48v-.75c0-2.47-1.57-4.48-3.5-4.48H57.24V40.51h10.1c1.93,0,3.5-2,3.5-4.48v-.75c0-2.48-1.57-4.48-3.5-4.48H57.24V22.71Z"/><path class="cls-5" d="M91.52.37C97,.4,104.36,1,104.08,10.61c-.16,5.41-5.52,12.89-9.59,14.05,13.05-.42,16.62,19.84,2.12,21.09,11.84,1.55,11.79,18.78-.33,19.69,7-.57,11,8.3,7.87,16C102,86.78,96,90.27,91.52,88.81"/><path class="cls-5" d="M14.52,1c-4-3.9-11.67,4.59-12.34,9.77-1,8,5.79,14,11.51,14.52C8,26.69,1.43,29.78,2.3,39c.77,8.22,7.2,8.24,11.75,11.13C9.35,51.69,2.54,51.84,2.68,60.33s6.51,9.43,11.46,11.34C10.53,73.51,2.63,77.3,5.25,84.42c1.92,5.19,7.43,3.54,9.62,5.46"/><path class="cls-4" d="M89.44.37C94.91.4,102.28,1,102,10.61c-.16,5.41-5.51,12.89-9.59,14.05,13.06-.42,16.63,19.84,2.12,21.09,11.84,1.55,11.79,18.78-.33,19.69,7-.57,11,8.3,7.88,16-2.16,5.31-8.14,8.8-12.64,7.34"/><path class="cls-4" d="M12.44,1C8.49-2.91.77,5.58.1,10.76c-1,8,5.79,14,11.51,14.52C5.91,26.69-.64,29.78.22,39,1,47.24,7.42,47.26,12,50.15,7.27,51.69.46,51.84.6,60.33s6.51,9.43,11.46,11.34C8.46,73.51.56,77.3,3.18,84.42c1.91,5.19,7.43,3.54,9.62,5.46"/></g></g></g></svg>