<svg xmlns="http://www.w3.org/2000/svg" viewBox="0 0 103.27 103.29"><defs><style>.cls-1{isolation:isolate;}.cls-2{fill:#ffbe3b;}.cls-2,.cls-4{mix-blend-mode:multiply;}.cls-3,.cls-5{fill:none;stroke-miterlimit:10;stroke-width:3px;}.cls-3{stroke:#fff;}.cls-5{stroke:#3b6aeb;}</style></defs><title>bshape4</title><g class="cls-1"><g id="Layer_2" data-name="Layer 2"><g id="OBJECTS"><path class="cls-2" d="M103.27,51.66A51.64,51.64,0,1,1,15.12,15.15c4.67-4.68,10.24-7.79,16.41-11.07C37.71-.41,44.5,1.79,51.63,0c7.13,0,13.92-.71,20.1,4.06,6.18,2.77,11.74,8.24,16.41,11.07,4.67,5.09,8.46,9.41,11.07,16.41C101.82,40.18,103.27,43.16,103.27,51.66Z"/><path class="cls-3" d="M95.83,51.66c0,5.38-1.23,13.94-3.47,17.2s-5.47,11.26-9.47,14c-4,2.37-8.76,7.48-14,9.47-5.29.37-11.1,4.26-17.21,3.48-6.1-1.92-11.91.69-17.2-3.48-5.29-4-10-7.64-14-9.47a63.45,63.45,0,0,1-9.47-14c-2.24-3-3.48-10-3.48-17.2,0-8.4,1.24-13.76,3.48-17.21,2.23-4.91,5.47-9.18,9.47-14.05a33.05,33.05,0,0,1,14.05-9.47c5.29.26,11.1-4.42,17.2-3.47a22.78,22.78,0,0,1,17.21,3.47c5.29,3.83,10,6.45,14,9.47,4,3.2,7.23,8.51,9.47,14.05C94.6,41.75,95.83,44.88,95.83,51.66Z"/><path class="cls-3" d="M87.35,51.66c0,5.49-1.77,14.06-4.87,18A24.83,24.83,0,0,1,69.66,82.5c-5.29,2.68-11.45,6.71-18,4.88a28.52,28.52,0,0,1-18-4.88c-5.29-3.22-9.71-6.42-12.81-12.82-3.1-4.8-4.88-9-4.88-18,0-4.5,1.78-12.8,4.88-18,3.1-6.49,7.52-11,12.81-12.82,5.3-2.59,11.46-4.91,18-4.88s12.74,3.64,18,4.88c5.29,5.29,9.72,8.7,12.82,12.82A40,40,0,0,1,87.35,51.66Z"/><path class="cls-3" d="M77.77,51.66c0,7.26-1.3,10.38-3.57,13.19-2.26,5.56-5.5,5.92-9.37,9.38-3.88,2-8.39,4.51-13.2,3.57-4.81,2.14-9.32-.86-13.19-3.57-3.87-3.94-7.11-6.91-9.38-9.38-2.27-2.84-3.57-8.24-3.57-13.19,0-2.81,1.3-11.54,3.57-13.2a33.62,33.62,0,0,1,9.38-9.38c3.87-2.35,8.38-3,13.19-3.56,4.81-.34,9.32-.86,13.2,3.56,3.87-.09,7.11,4.22,9.37,9.38C76.47,40,77.77,46.64,77.77,51.66Z"/><path class="cls-3" d="M74.24,51.66c0,4-2.53,11-6.62,16-4.09,6.18-9.74,8.68-16,6.63-6.24,1.68-11.89-.69-16-6.63C31.55,63.79,29,56,29,51.66c0-4.94,2.53-13.88,6.62-16,4.1-6.48,9.75-7.17,16-6.63,6.25,1.25,11.9.61,16,6.63C71.71,38,74.24,46.32,74.24,51.66Z"/><path class="cls-3" d="M69.91,51.66c0,7.51-2,11.39-5.36,12.92-3.3,5.38-7.87,6.26-12.92,5.35-5,.28-9.61-4-12.92-5.35C35.4,60,33.36,55.92,33.36,51.66c0-5.46,2-10.49,5.35-12.93,3.31-2,7.88-3.16,12.92-5.35s9.62,1,12.92,5.35C67.86,42.62,69.91,48.55,69.91,51.66Z"/><path class="cls-3" d="M65,51.66a12.53,12.53,0,0,1-3.91,9.45C58.67,65,55.33,67,51.63,65c-3.69,0-7-2.09-9.45-3.92-2.42-1-3.92-7.71-3.92-9.45,0-2.58,1.5-5.35,3.92-9.46,2.42-.42,5.76-5.16,9.45-3.92a37.77,37.77,0,0,0,9.46,3.92C63.51,43.29,65,50.18,65,51.66Z"/><g class="cls-4"><path class="cls-5" d="M95.83,49.66c0,5.38-1.23,13.94-3.47,17.2s-5.47,11.26-9.47,14c-4,2.37-8.76,7.48-14,9.47-5.29.37-11.1,4.26-17.21,3.48-6.1-1.92-11.91.69-17.2-3.48-5.29-4-10-7.64-14-9.47a63.45,63.45,0,0,1-9.47-14c-2.24-3-3.48-10-3.48-17.2,0-8.4,1.24-13.76,3.48-17.21,2.23-4.91,5.47-9.18,9.47-14.05A33.05,33.05,0,0,1,34.43,8.93c5.29.26,11.1-4.42,17.2-3.47A22.78,22.78,0,0,1,68.84,8.93c5.29,3.83,10,6.45,14,9.47,4,3.2,7.23,8.51,9.47,14.05C94.6,39.75,95.83,42.88,95.83,49.66Z"/><path class="cls-5" d="M87.35,49.66c0,5.49-1.77,14.06-4.87,18A24.83,24.83,0,0,1,69.66,80.5c-5.29,2.68-11.45,6.71-18,4.88a28.52,28.52,0,0,1-18-4.88c-5.29-3.22-9.71-6.42-12.81-12.82-3.1-4.8-4.88-9-4.88-18,0-4.5,1.78-12.8,4.88-18,3.1-6.49,7.52-11,12.81-12.82,5.3-2.59,11.46-4.91,18-4.88s12.74,3.64,18,4.88c5.29,5.29,9.72,8.7,12.82,12.82A40,40,0,0,1,87.35,49.66Z"/><path class="cls-5" d="M77.77,49.66c0,7.26-1.3,10.38-3.57,13.19-2.26,5.56-5.5,5.92-9.37,9.38-3.88,2-8.39,4.51-13.2,3.57-4.81,2.14-9.32-.86-13.19-3.57-3.87-3.94-7.11-6.91-9.38-9.38-2.27-2.84-3.57-8.24-3.57-13.19,0-2.81,1.3-11.54,3.57-13.2a33.62,33.62,0,0,1,9.38-9.38c3.87-2.35,8.38-3,13.19-3.56,4.81-.34,9.32-.86,13.2,3.56,3.87-.09,7.11,4.22,9.37,9.38C76.47,38,77.77,44.64,77.77,49.66Z"/><path class="cls-5" d="M74.24,49.66c0,4-2.53,11-6.62,16-4.09,6.18-9.74,8.68-16,6.63-6.24,1.68-11.89-.69-16-6.63C31.55,61.79,29,54,29,49.66c0-4.94,2.53-13.88,6.62-16,4.1-6.48,9.75-7.17,16-6.63,6.25,1.25,11.9.61,16,6.63C71.71,36,74.24,44.32,74.24,49.66Z"/><path class="cls-5" d="M69.91,49.66c0,7.51-2,11.39-5.36,12.92-3.3,5.38-7.87,6.26-12.92,5.35-5,.28-9.61-4-12.92-5.35C35.4,58,33.36,53.92,33.36,49.66c0-5.46,2-10.49,5.35-12.93,3.31-2,7.88-3.16,12.92-5.35s9.62,1,12.92,5.35C67.86,40.62,69.91,46.55,69.91,49.66Z"/><path class="cls-5" d="M65,49.66a12.53,12.53,0,0,1-3.91,9.45C58.67,63,55.33,65,51.63,63c-3.69-.05-7-2.09-9.45-3.92-2.42-1-3.92-7.71-3.92-9.45,0-2.58,1.5-5.35,3.92-9.46,2.42-.42,5.76-5.16,9.45-3.92a37.77,37.77,0,0,0,9.46,3.92C63.51,41.29,65,48.18,65,49.66Z"/></g></g></g></g></svg>