<svg xmlns="http://www.w3.org/2000/svg" viewBox="0 0 113.02 115.48"><defs><style>.cls-1{isolation:isolate;}.cls-2{fill:#ff47da;}.cls-2,.cls-3,.cls-5,.cls-6{mix-blend-mode:multiply;}.cls-3{fill:#ffa600;}.cls-4{fill:#fff;}.cls-5{fill:#1ad966;}.cls-7{fill:#3b6aeb;}</style></defs><title>bshape1</title><g class="cls-1"><g id="Layer_2" data-name="Layer 2"><g id="OBJECTS"><polygon class="cls-2" points="89 100.81 65.95 81.8 61.99 111.41 51.53 83.42 33.29 107.09 38.23 77.62 10.6 89 29.61 65.95 0 61.99 27.99 51.53 4.32 33.29 33.79 38.23 22.41 10.6 45.47 29.61 49.43 0 59.88 27.99 78.12 4.32 73.18 33.79 100.81 22.41 81.8 45.47 111.41 49.43 83.42 59.88 107.09 78.12 77.62 73.18 89 100.81"/><polygon class="cls-3" points="90.61 104.87 67.56 85.86 63.59 115.48 53.14 87.49 34.9 111.15 39.84 81.68 12.21 93.06 31.22 70.01 1.61 66.05 29.6 55.59 5.93 37.35 35.4 42.29 24.02 14.66 47.07 33.68 51.03 4.06 61.49 32.05 79.73 8.38 74.79 37.85 102.42 26.48 83.41 49.53 113.02 53.49 85.03 63.95 108.7 82.18 79.23 77.24 90.61 104.87"/><path class="cls-4" d="M38.31,66.05c-1.22-7.64,3.64-15.27,10-19.18,4.66-2.89,10.5-4.65,16-3.78,5.14.82,11,4.27,13.09,9.23a20.26,20.26,0,0,1-.93,16.62,21.85,21.85,0,0,1-9.1,8.23,21.31,21.31,0,0,1-14.86,1.59C46.56,77.26,39.35,72.52,38.31,66.05Z"/><path class="cls-5" d="M36,62.5c-1.22-7.63,3.64-15.27,10-19.18,4.65-2.88,10.5-4.65,16-3.77,5.14.81,11,4.26,13.09,9.23a20.28,20.28,0,0,1-.93,16.61A21.78,21.78,0,0,1,65,73.62a21.28,21.28,0,0,1-14.87,1.6C44.2,73.72,37,69,36,62.5Z"/><g class="cls-6"><path class="cls-7" d="M58.4,31.69a.76.76,0,1,1,0-1.08A.77.77,0,0,1,58.4,31.69Z"/><path class="cls-7" d="M61,34.27a.76.76,0,0,1-1.08,0,.75.75,0,0,1,0-1.07A.76.76,0,1,1,61,34.27Z"/><circle class="cls-7" cx="63.03" cy="36.32" r="0.76"/><circle class="cls-7" cx="65.61" cy="38.9" r="0.76"/><path class="cls-7" d="M68.73,42a.75.75,0,0,1-1.07,0,.76.76,0,1,1,1.07,0Z"/><path class="cls-7" d="M71.32,44.6a.76.76,0,0,1-1.08,0,.75.75,0,0,1,0-1.07.76.76,0,1,1,1.08,1.07Z"/><path class="cls-7" d="M55.66,34.43a.76.76,0,0,1-1.07-1.08.75.75,0,0,1,1.07,0A.76.76,0,0,1,55.66,34.43Z"/><path class="cls-7" d="M58.25,37a.76.76,0,0,1-1.08,0,.76.76,0,1,1,1.08,0Z"/><path class="cls-7" d="M60.83,39.59a.76.76,0,1,1,0-1.07A.75.75,0,0,1,60.83,39.59Z"/><path class="cls-7" d="M63.41,42.17a.76.76,0,1,1,0-1.07A.75.75,0,0,1,63.41,42.17Z"/><path class="cls-7" d="M66,44.76a.78.78,0,0,1-1.08,0,.76.76,0,0,1,0-1.08A.76.76,0,1,1,66,44.76Z"/><circle class="cls-7" cx="68.04" cy="46.8" r="0.76"/><path class="cls-7" d="M53.08,37a.76.76,0,1,1,0-1.07A.75.75,0,0,1,53.08,37Z"/><circle class="cls-7" cx="55.13" cy="39.06" r="0.76"/><circle class="cls-7" cx="57.71" cy="41.64" r="0.76"/><circle class="cls-7" cx="60.29" cy="44.22" r="0.76"/><path class="cls-7" d="M63.41,47.34a.76.76,0,1,1,0-1.07A.75.75,0,0,1,63.41,47.34Z"/><path class="cls-7" d="M66,49.92a.76.76,0,1,1,0-1.07A.75.75,0,0,1,66,49.92Z"/><path class="cls-7" d="M50.34,39.75a.75.75,0,0,1-1.07,0,.76.76,0,1,1,1.07,0Z"/><path class="cls-7" d="M52.93,42.33a.76.76,0,0,1-1.08,0,.75.75,0,0,1,0-1.07.76.76,0,0,1,1.08,1.07Z"/><path class="cls-7" d="M55.51,44.91a.76.76,0,1,1,0-1.07A.76.76,0,0,1,55.51,44.91Z"/><path class="cls-7" d="M58.09,47.5a.76.76,0,1,1,0-1.08A.77.77,0,0,1,58.09,47.5Z"/><path class="cls-7" d="M60.67,50.08a.75.75,0,0,1-1.07,0,.76.76,0,1,1,1.07,0Z"/><path class="cls-7" d="M63.26,52.66a.76.76,0,0,1-1.08,0,.75.75,0,0,1,0-1.07.76.76,0,0,1,1.08,1.07Z"/><path class="cls-7" d="M47.76,42.33a.76.76,0,1,1,0-1.07A.76.76,0,0,1,47.76,42.33Z"/><path class="cls-7" d="M50.34,44.92a.76.76,0,0,1-1.07-1.08.75.75,0,0,1,1.07,0A.76.76,0,0,1,50.34,44.92Z"/><path class="cls-7" d="M52.92,47.5a.75.75,0,0,1-1.07,0,.76.76,0,1,1,1.07,0Z"/><path class="cls-7" d="M55.51,50.08a.76.76,0,0,1-1.08,0,.75.75,0,0,1,0-1.07.76.76,0,0,1,1.08,1.07Z"/><path class="cls-7" d="M58.09,52.66a.76.76,0,1,1,0-1.07A.75.75,0,0,1,58.09,52.66Z"/><circle class="cls-7" cx="60.13" cy="54.71" r="0.76"/><path class="cls-7" d="M45,45.07A.76.76,0,1,1,45,44,.75.75,0,0,1,45,45.07Z"/><path class="cls-7" d="M47.6,47.65a.76.76,0,1,1,0-1.07A.75.75,0,0,1,47.6,47.65Z"/><circle class="cls-7" cx="49.65" cy="49.7" r="0.76"/><circle class="cls-7" cx="52.23" cy="52.28" r="0.76"/><path class="cls-7" d="M55.35,55.4a.76.76,0,1,1,0-1.07A.75.75,0,0,1,55.35,55.4Z"/><path class="cls-7" d="M57.93,58a.76.76,0,1,1,0-1.07A.75.75,0,0,1,57.93,58Z"/></g><g class="cls-6"><path class="cls-7" d="M73.66,47a.75.75,0,0,1-1.07,0,.76.76,0,1,1,1.07,0Z"/><path class="cls-7" d="M76.25,49.53a.76.76,0,0,1-1.08,0,.75.75,0,0,1,0-1.07.76.76,0,1,1,1.08,1.07Z"/><path class="cls-7" d="M78.83,52.11a.76.76,0,1,1,0-1.07A.75.75,0,0,1,78.83,52.11Z"/><circle class="cls-7" cx="80.87" cy="54.16" r="0.76"/><path class="cls-7" d="M84,57.28a.75.75,0,0,1-1.07,0,.76.76,0,1,1,1.07,0Z"/><path class="cls-7" d="M86.58,59.86a.76.76,0,1,1,0-1.07A.76.76,0,0,1,86.58,59.86Z"/><circle class="cls-7" cx="70.39" cy="49.15" r="0.76"/><path class="cls-7" d="M73.51,52.27a.76.76,0,0,1-1.08,0,.76.76,0,1,1,1.08,0Z"/><path class="cls-7" d="M76.09,54.85a.76.76,0,1,1,0-1.07A.75.75,0,0,1,76.09,54.85Z"/><path class="cls-7" d="M78.67,57.43a.76.76,0,1,1,0-1.07A.75.75,0,0,1,78.67,57.43Z"/><path class="cls-7" d="M81.26,60a.78.78,0,0,1-1.08,0,.76.76,0,0,1,0-1.08A.76.76,0,0,1,81.26,60Z"/><path class="cls-7" d="M83.84,62.6a.76.76,0,1,1,0-1.07A.75.75,0,0,1,83.84,62.6Z"/><path class="cls-7" d="M68.34,52.27a.76.76,0,1,1,0-1.07A.75.75,0,0,1,68.34,52.27Z"/><path class="cls-7" d="M70.92,54.85a.76.76,0,1,1,0-1.07A.75.75,0,0,1,70.92,54.85Z"/><circle class="cls-7" cx="72.97" cy="56.9" r="0.76"/><circle class="cls-7" cx="75.55" cy="59.48" r="0.76"/><circle class="cls-7" cx="78.13" cy="62.06" r="0.76"/><path class="cls-7" d="M81.25,65.18a.76.76,0,1,1,0-1.07A.75.75,0,0,1,81.25,65.18Z"/><path class="cls-7" d="M65.6,55a.75.75,0,0,1-1.07,0,.76.76,0,1,1,1.07,0Z"/><path class="cls-7" d="M68.19,57.59a.76.76,0,0,1-1.08,0,.75.75,0,0,1,0-1.07.76.76,0,1,1,1.08,1.07Z"/><path class="cls-7" d="M70.77,60.17a.76.76,0,1,1,0-1.07A.76.76,0,0,1,70.77,60.17Z"/><path class="cls-7" d="M73.35,62.76a.76.76,0,1,1,0-1.08A.77.77,0,0,1,73.35,62.76Z"/><path class="cls-7" d="M75.93,65.34a.76.76,0,1,1,0-1.07A.75.75,0,0,1,75.93,65.34Z"/><path class="cls-7" d="M78.52,67.92a.76.76,0,0,1-1.08,0,.75.75,0,0,1,0-1.07.76.76,0,1,1,1.08,1.07Z"/><circle class="cls-7" cx="62.48" cy="57.06" r="0.76"/><path class="cls-7" d="M65.6,60.18a.76.76,0,0,1-1.07-1.08.75.75,0,0,1,1.07,0A.76.76,0,0,1,65.6,60.18Z"/><path class="cls-7" d="M68.18,62.76a.75.75,0,0,1-1.07,0,.76.76,0,1,1,1.07,0Z"/><path class="cls-7" d="M70.77,65.34a.76.76,0,0,1-1.08,0,.75.75,0,0,1,0-1.07.76.76,0,0,1,1.08,1.07Z"/><path class="cls-7" d="M73.35,67.92a.76.76,0,1,1,0-1.07A.75.75,0,0,1,73.35,67.92Z"/><path class="cls-7" d="M75.93,70.51a.76.76,0,1,1,0-1.08A.77.77,0,0,1,75.93,70.51Z"/><path class="cls-7" d="M60.28,60.33a.76.76,0,1,1,0-1.07A.75.75,0,0,1,60.28,60.33Z"/><path class="cls-7" d="M62.86,62.91a.76.76,0,1,1,0-1.07A.75.75,0,0,1,62.86,62.91Z"/><path class="cls-7" d="M65.45,65.5a.78.78,0,0,1-1.08,0,.76.76,0,0,1,0-1.08.76.76,0,0,1,1.08,1.08Z"/><circle class="cls-7" cx="67.49" cy="67.54" r="0.76"/><path class="cls-7" d="M70.61,70.66a.76.76,0,1,1,0-1.07A.75.75,0,0,1,70.61,70.66Z"/><path class="cls-7" d="M73.19,73.24a.76.76,0,1,1,0-1.07A.75.75,0,0,1,73.19,73.24Z"/></g><g class="cls-6"><path class="cls-7" d="M42.38,47.71a.76.76,0,1,1,0-1.07A.75.75,0,0,1,42.38,47.71Z"/><path class="cls-7" d="M45,50.29a.76.76,0,1,1,0-1.07A.75.75,0,0,1,45,50.29Z"/><path class="cls-7" d="M47.54,52.88a.76.76,0,1,1,0-1.08A.77.77,0,0,1,47.54,52.88Z"/><path class="cls-7" d="M50.13,55.46a.76.76,0,1,1,0-1.07A.76.76,0,0,1,50.13,55.46Z"/><path class="cls-7" d="M52.71,58a.76.76,0,1,1,0-1.07A.75.75,0,0,1,52.71,58Z"/><path class="cls-7" d="M55.29,60.63a.76.76,0,1,1-1.07-1.08.75.75,0,0,1,1.07,0A.76.76,0,0,1,55.29,60.63Z"/><path class="cls-7" d="M39.64,50.45a.76.76,0,1,1,0-1.07A.75.75,0,0,1,39.64,50.45Z"/><path class="cls-7" d="M42.22,53a.76.76,0,1,1,0-1.07A.75.75,0,0,1,42.22,53Z"/><circle class="cls-7" cx="44.27" cy="55.08" r="0.76"/><path class="cls-7" d="M47.39,58.2a.76.76,0,0,1-1.08,0,.76.76,0,1,1,1.08-1.08A.76.76,0,0,1,47.39,58.2Z"/><path class="cls-7" d="M50,60.78a.76.76,0,1,1,0-1.07A.75.75,0,0,1,50,60.78Z"/><path class="cls-7" d="M52.55,63.36a.76.76,0,1,1,0-1.07A.75.75,0,0,1,52.55,63.36Z"/><path class="cls-7" d="M37.06,53A.76.76,0,0,1,36,53,.75.75,0,0,1,36,52,.76.76,0,0,1,37.06,53Z"/><path class="cls-7" d="M39.64,55.62a.76.76,0,1,1,0-1.08A.76.76,0,0,1,39.64,55.62Z"/><circle class="cls-7" cx="41.68" cy="57.66" r="0.76"/><path class="cls-7" d="M44.8,60.78a.76.76,0,1,1,0-1.07A.75.75,0,0,1,44.8,60.78Z"/><path class="cls-7" d="M47.39,63.37a.76.76,0,0,1-1.08-1.08.76.76,0,0,1,1.08,0A.78.78,0,0,1,47.39,63.37Z"/><path class="cls-7" d="M50,66a.76.76,0,1,1,0-1.08A.76.76,0,0,1,50,66Z"/><path class="cls-7" d="M34.32,55.77a.76.76,0,1,1,0-1.07A.76.76,0,0,1,34.32,55.77Z"/><circle class="cls-7" cx="36.36" cy="57.82" r="0.76"/><circle class="cls-7" cx="38.95" cy="60.4" r="0.76"/><circle class="cls-7" cx="41.53" cy="62.98" r="0.76"/><path class="cls-7" d="M44.65,66.1a.76.76,0,1,1,0-1.07A.75.75,0,0,1,44.65,66.1Z"/><path class="cls-7" d="M47.23,68.69a.76.76,0,1,1-1.07-1.08.75.75,0,0,1,1.07,0A.76.76,0,0,1,47.23,68.69Z"/><path class="cls-7" d="M31.73,58.36a.76.76,0,1,1,0-1.08A.77.77,0,0,1,31.73,58.36Z"/><path class="cls-7" d="M34.32,60.94a.76.76,0,0,1-1.08,0,.75.75,0,0,1,0-1.07.76.76,0,0,1,1.08,1.07Z"/><circle class="cls-7" cx="36.36" cy="62.99" r="0.76"/><path class="cls-7" d="M39.48,66.11A.76.76,0,0,1,38.41,65a.75.75,0,0,1,1.07,0A.76.76,0,0,1,39.48,66.11Z"/><path class="cls-7" d="M42.06,68.69a.76.76,0,1,1,0-1.08A.77.77,0,0,1,42.06,68.69Z"/><path class="cls-7" d="M44.65,71.27a.76.76,0,1,1,0-1.07A.76.76,0,0,1,44.65,71.27Z"/><path class="cls-7" d="M29,61.1a.78.78,0,0,1-1.08,0A.76.76,0,0,1,29,60,.78.78,0,0,1,29,61.1Z"/><path class="cls-7" d="M31.58,63.68a.76.76,0,1,1,0-1.08A.76.76,0,0,1,31.58,63.68Z"/><circle class="cls-7" cx="33.62" cy="65.72" r="0.76"/><circle class="cls-7" cx="36.21" cy="68.31" r="0.76"/><path class="cls-7" d="M39.33,71.43a.78.78,0,0,1-1.08,0,.76.76,0,0,1,1.08-1.08A.78.78,0,0,1,39.33,71.43Z"/><path class="cls-7" d="M41.91,74a.76.76,0,0,1-1.08,0,.76.76,0,1,1,1.08-1.08A.76.76,0,0,1,41.91,74Z"/></g><g class="cls-6"><path class="cls-7" d="M57.64,63a.76.76,0,1,1,0-1.07A.75.75,0,0,1,57.64,63Z"/><path class="cls-7" d="M60.22,65.56a.76.76,0,1,1-1.07-1.08.75.75,0,0,1,1.07,0A.76.76,0,0,1,60.22,65.56Z"/><path class="cls-7" d="M62.8,68.14a.76.76,0,1,1,0-1.08A.77.77,0,0,1,62.8,68.14Z"/><path class="cls-7" d="M65.39,70.72a.76.76,0,1,1,0-1.07A.76.76,0,0,1,65.39,70.72Z"/><path class="cls-7" d="M68,73.3a.76.76,0,1,1,0-1.07A.75.75,0,0,1,68,73.3Z"/><path class="cls-7" d="M70.55,75.89a.76.76,0,0,1-1.07-1.08.75.75,0,0,1,1.07,0A.76.76,0,0,1,70.55,75.89Z"/><path class="cls-7" d="M54.9,65.71a.76.76,0,1,1,0-1.07A.75.75,0,0,1,54.9,65.71Z"/><path class="cls-7" d="M57.48,68.29a.76.76,0,1,1,0-1.07A.75.75,0,0,1,57.48,68.29Z"/><path class="cls-7" d="M60.07,70.88a.78.78,0,0,1-1.08,0,.76.76,0,0,1,1.08-1.08A.78.78,0,0,1,60.07,70.88Z"/><circle class="cls-7" cx="62.11" cy="72.92" r="0.76"/><path class="cls-7" d="M65.23,76a.76.76,0,1,1,0-1.07A.75.75,0,0,1,65.23,76Z"/><path class="cls-7" d="M67.81,78.62a.76.76,0,1,1,0-1.07A.75.75,0,0,1,67.81,78.62Z"/><path class="cls-7" d="M52.32,68.3a.76.76,0,0,1-1.08-1.08.76.76,0,0,1,1.08,0A.78.78,0,0,1,52.32,68.3Z"/><path class="cls-7" d="M54.9,70.88a.76.76,0,1,1,0-1.08A.76.76,0,0,1,54.9,70.88Z"/><path class="cls-7" d="M57.48,73.46a.76.76,0,1,1,0-1.07A.75.75,0,0,1,57.48,73.46Z"/><circle class="cls-7" cx="59.53" cy="75.51" r="0.76"/><path class="cls-7" d="M62.65,78.63a.76.76,0,1,1-1.08-1.08.76.76,0,0,1,1.08,0A.78.78,0,0,1,62.65,78.63Z"/><path class="cls-7" d="M65.23,81.21a.75.75,0,0,1-1.07,0,.76.76,0,1,1,1.07,0Z"/><path class="cls-7" d="M49.58,71a.76.76,0,1,1,0-1.07A.75.75,0,0,1,49.58,71Z"/><path class="cls-7" d="M52.16,73.62a.76.76,0,1,1-1.07-1.08.75.75,0,0,1,1.07,0A.76.76,0,0,1,52.16,73.62Z"/><circle class="cls-7" cx="54.21" cy="75.66" r="0.76"/><circle class="cls-7" cx="56.79" cy="78.24" r="0.76"/><circle class="cls-7" cx="59.37" cy="80.83" r="0.76"/><path class="cls-7" d="M62.49,84a.76.76,0,1,1,0-1.08A.77.77,0,0,1,62.49,84Z"/><path class="cls-7" d="M47,73.62a.76.76,0,1,1,0-1.08A.77.77,0,0,1,47,73.62Z"/><path class="cls-7" d="M49.58,76.2a.76.76,0,1,1,0-1.07A.76.76,0,0,1,49.58,76.2Z"/><path class="cls-7" d="M52.16,78.78a.76.76,0,1,1,0-1.07A.75.75,0,0,1,52.16,78.78Z"/><circle class="cls-7" cx="54.2" cy="80.83" r="0.76"/><path class="cls-7" d="M57.32,84a.75.75,0,0,1-1.07,0,.76.76,0,1,1,1.07,0Z"/><path class="cls-7" d="M59.91,86.53a.76.76,0,1,1,0-1.07A.76.76,0,0,1,59.91,86.53Z"/><path class="cls-7" d="M44.26,76.36a.78.78,0,0,1-1.08,0,.76.76,0,1,1,1.08-1.08A.78.78,0,0,1,44.26,76.36Z"/><path class="cls-7" d="M46.84,78.94a.76.76,0,0,1-1.08,0,.76.76,0,0,1,1.08-1.08A.76.76,0,0,1,46.84,78.94Z"/><circle class="cls-7" cx="48.88" cy="80.98" r="0.76"/><circle class="cls-7" cx="51.47" cy="83.57" r="0.76"/><circle class="cls-7" cx="54.05" cy="86.15" r="0.76"/><path class="cls-7" d="M57.17,89.27a.76.76,0,0,1-1.08,0,.76.76,0,1,1,1.08-1.08A.76.76,0,0,1,57.17,89.27Z"/></g></g></g></g></svg>