<svg xmlns="http://www.w3.org/2000/svg" viewBox="0 0 62.86 55.53"><defs><style>.cls-1{isolation:isolate;}.cls-2{fill:#eaa928;}.cls-3{fill:#fff;}.cls-4{fill:#3b6aeb;mix-blend-mode:multiply;}.cls-5{fill:#ff47da;}</style></defs><title>bshape5</title><g class="cls-1"><g id="Layer_2" data-name="Layer 2"><g id="OBJECTS"><path class="cls-2" d="M62.12,33.9C54.27,21.35,26.47,21,14.55,26.84,9.79,29.17-.95,35,.07,40.21c1,5,11.24,9.66,15.24,11,9.36,3.13,18.27,1.34,27.46-1C46.82,49.15,67,40.08,62.12,33.9Z"/><path class="cls-3" d="M27.89,22.22c-7,2.84-8.58,14.26-6.6,20.63,1.53,4.94,5.4,12.62,11.77,11.07,7.59-1.86,9.25-9.82,8.83-16.62A23.54,23.54,0,0,0,38.1,25.93C35.55,22.11,32.22,20.47,27.89,22.22Z"/><path class="cls-4" d="M27.32,23.63c-7,2.83-8.58,14.26-6.6,20.63,1.53,4.93,5.4,12.62,11.77,11.06,7.59-1.85,9.25-9.81,8.83-16.61a23.54,23.54,0,0,0-3.79-11.37C35,23.52,31.65,21.87,27.32,23.63Z"/><path class="cls-5" d="M45.9,0C42,4.86,40,11.25,36.65,16.51,33.79,11.59,33.93,5.24,31.17.41,29.09,2.1,24.68,14,24.15,17c-1.33-2.93-3.84-5.44-5.33-8.41a62.52,62.52,0,0,0-3.68-7.1c0,.14-.06.27-.09.41-.7,6.49-.21,13.05-.32,19.57a71.81,71.81,0,0,1,19.62-1.37,56.29,56.29,0,0,1,12.27,1.66C46.26,14.52,45.89,7.27,45.9,0Z"/></g></g></g></svg>