<svg xmlns="http://www.w3.org/2000/svg" viewBox="0 0 98.66 99.46"><defs><style>.cls-1{isolation:isolate;}.cls-2{fill:#ff6aeb;}.cls-3{mix-blend-mode:multiply;}.cls-4{fill:#1ad966;}</style></defs><title>bshape3</title><g class="cls-1"><g id="Layer_2" data-name="Layer 2"><g id="OBJECTS"><rect class="cls-2" width="16.56" height="16.56"/><rect class="cls-2" x="16.56" y="16.56" width="16.56" height="16.56"/><rect class="cls-2" x="33.13" width="16.56" height="16.56"/><rect class="cls-2" x="49.7" y="16.56" width="16.56" height="16.56"/><rect class="cls-2" x="66.26" width="16.56" height="16.56"/><rect class="cls-2" y="32.18" width="16.56" height="16.56"/><rect class="cls-2" x="16.56" y="48.74" width="16.56" height="16.56"/><rect class="cls-2" x="33.13" y="32.18" width="16.56" height="16.56"/><rect class="cls-2" x="49.7" y="48.74" width="16.56" height="16.56"/><rect class="cls-2" x="66.26" y="32.18" width="16.56" height="16.56"/><rect class="cls-2" y="64.36" width="16.56" height="16.56"/><rect class="cls-2" x="33.13" y="64.36" width="16.56" height="16.56"/><rect class="cls-2" x="66.26" y="64.36" width="16.56" height="16.56"/><g class="cls-3"><rect class="cls-4" x="32.39" y="18.53" width="16.56" height="16.56"/><rect class="cls-4" x="65.52" y="18.53" width="16.56" height="16.56"/><rect class="cls-4" x="15.83" y="34.15" width="16.56" height="16.56"/><rect class="cls-4" x="32.39" y="50.71" width="16.56" height="16.56"/><rect class="cls-4" x="48.96" y="34.15" width="16.56" height="16.56"/><rect class="cls-4" x="65.52" y="50.71" width="16.56" height="16.56"/><rect class="cls-4" x="82.09" y="34.15" width="16.56" height="16.56"/><rect class="cls-4" x="15.83" y="66.33" width="16.56" height="16.56"/><rect class="cls-4" x="32.39" y="82.89" width="16.56" height="16.56"/><rect class="cls-4" x="48.96" y="66.33" width="16.56" height="16.56"/><rect class="cls-4" x="65.52" y="82.89" width="16.56" height="16.56"/><rect class="cls-4" x="82.09" y="66.33" width="16.56" height="16.56"/></g></g></g></g></svg>