<svg xmlns="http://www.w3.org/2000/svg" xmlns:xlink="http://www.w3.org/1999/xlink" viewBox="0 0 408.24 403.66"><defs><style>.cls-1,.cls-10,.cls-5{fill:none;}.cls-2{fill:#222221;}.cls-3{fill:#54b970;}.cls-4{clip-path:url(#clip-path);}.cls-5{stroke:#000;}.cls-10,.cls-5{stroke-linecap:round;stroke-linejoin:round;}.cls-6{fill:#f391b9;}.cls-7{fill:#2d75bd;}.cls-8{fill:#f3ac2b;}.cls-9{fill:#e53f00;}.cls-10{stroke:#2d75bd;stroke-width:2px;}.cls-11{fill:#ced49f;}.cls-12{clip-path:url(#clip-path-2);}.cls-13{clip-path:url(#clip-path-3);}</style><clipPath id="clip-path"><path class="cls-1" d="M308.61,100.78a21.26,21.26,0,0,1-29.74-29.73L254.13,46.31a56.1,56.1,0,0,0,79.22,79.21Z"/></clipPath><clipPath id="clip-path-2"><path class="cls-1" d="M3.69,167.45c0,.58,0,1.15,0,1.73A47.84,47.84,0,0,0,51.48,217V167.45Z"/></clipPath><clipPath id="clip-path-3"><path class="cls-1" d="M184.9,16.68l-.47.44a34,34,0,0,0,48.12,48.12c.15-.15.29-.31.44-.47Z"/></clipPath></defs><title>education-image</title><g id="Layer_2" data-name="Layer 2"><g id="OBJECTS"><rect class="cls-2" x="3.65" y="1.96" width="401.7" height="401.7"/><path class="cls-3" d="M308.61,100.78a21.26,21.26,0,0,1-29.74-29.73L254.13,46.31a56.1,56.1,0,0,0,79.22,79.21Z"/><g class="cls-4"><path class="cls-5" d="M267.45,53a41.19,41.19,0,0,0,58.17,58.16"/></g><path class="cls-6" d="M298.2,48.62l-.43.41a31.13,31.13,0,1,0,44,44l.41-.43Z"/><line class="cls-5" x1="291.12" y1="56.46" x2="334.63" y2="99.97"/><ellipse class="cls-7" cx="55.3" cy="39.98" rx="30.56" ry="14.99"/><path class="cls-6" d="M74.87,51.54a11.65,11.65,0,0,1,0-23V9.32a30.74,30.74,0,0,0,0,61.38Z"/><path class="cls-5" d="M75.08,14.48a25.9,25.9,0,0,0,0,51.72"/><path class="cls-8" d="M353,341.42a14.45,14.45,0,0,1,28.57,0h23.76a38.11,38.11,0,0,0-76.09,0Z"/><circle class="cls-9" cx="366.59" cy="343.58" r="17.98" transform="translate(-112.31 495.53) rotate(-60.75)"/><path class="cls-8" d="M368.1,306.34A12.39,12.39,0,0,0,380.49,294H355.72A12.38,12.38,0,0,0,368.1,306.34Z"/><path class="cls-10" d="M105.48,102.05a9.88,9.88,0,0,1-19.76,0"/><path class="cls-10" d="M125.25,102.05a9.89,9.89,0,0,1-19.77,0"/><path class="cls-10" d="M145,102.05a9.88,9.88,0,1,1-19.76,0"/><path class="cls-10" d="M164.78,102.05a9.89,9.89,0,0,1-19.77,0"/><path class="cls-10" d="M184.55,102.05a9.89,9.89,0,0,1-19.77,0"/><path class="cls-10" d="M105.48,116a9.88,9.88,0,0,1-19.76,0"/><path class="cls-10" d="M125.25,116a9.89,9.89,0,0,1-19.77,0"/><path class="cls-10" d="M145,116a9.88,9.88,0,1,1-19.76,0"/><path class="cls-10" d="M164.78,116A9.89,9.89,0,0,1,145,116"/><path class="cls-10" d="M184.55,116a9.89,9.89,0,0,1-19.77,0"/><path class="cls-10" d="M105.48,129.87a9.88,9.88,0,0,1-19.76,0"/><path class="cls-10" d="M125.25,129.87a9.89,9.89,0,0,1-19.77,0"/><path class="cls-10" d="M145,129.87a9.88,9.88,0,0,1-19.76,0"/><path class="cls-10" d="M164.78,129.87a9.89,9.89,0,0,1-19.77,0"/><path class="cls-10" d="M184.55,129.87a9.89,9.89,0,0,1-19.77,0"/><path class="cls-7" d="M68.28,294.1a21.54,21.54,0,0,1,42.6,0h35.44a56.83,56.83,0,0,0-113.48,0Z"/><path class="cls-9" d="M16.31,359.21H47.22a42.87,42.87,0,0,1,84.73,0h30.91a73.57,73.57,0,0,0-146.55,0Z"/><path class="cls-8" d="M275.91,47.49v-10a13.89,13.89,0,0,1,0-27.45V0a23.84,23.84,0,0,0,0,47.49Z"/><path class="cls-9" d="M292.23,43.61V3.88a19.94,19.94,0,0,0,0,39.73Z"/><path class="cls-9" d="M334.1,233.54V210.89a31.42,31.42,0,0,1,0-62.11V126.13a53.92,53.92,0,0,0,0,107.41Z"/><path class="cls-11" d="M268.08,159.52V198.6a19.62,19.62,0,0,0,0-39.08Z"/><path class="cls-11" d="M408.24,184.52s-18.93,30-42.27,30-42.28-30-42.28-30,18.93-30,42.28-30S408.24,184.52,408.24,184.52Z"/><circle class="cls-9" cx="365.97" cy="184.52" r="24.76"/><circle class="cls-2" cx="365.97" cy="184.52" r="9.47"/><path class="cls-6" d="M3.69,167.45c0,.58,0,1.15,0,1.73A47.84,47.84,0,0,0,51.48,217V167.45Z"/><path class="cls-3" d="M42.32,145.46q0,.56,0,1.11A30.69,30.69,0,0,0,73,177.26v-31.8Z"/><g class="cls-12"><path class="cls-5" d="M13.75,163.57c0,.51,0,1,0,1.55A42.9,42.9,0,0,0,56.61,208"/></g><path class="cls-7" d="M212.68,280.63c0,.5,0,1,0,1.5A41.35,41.35,0,0,0,254,323.48V280.63Z"/><path class="cls-7" d="M252.79,280.63c0,.5,0,1,0,1.5a41.35,41.35,0,0,0,41.36,41.35V280.63Z"/><path class="cls-7" d="M292.78,280.63c0,.5,0,1,0,1.5a41.35,41.35,0,0,0,41.36,41.35V280.63Z"/><path class="cls-7" d="M212.68,240.59c0,.5,0,1,0,1.5A41.36,41.36,0,0,0,254,283.44V240.59Z"/><path class="cls-7" d="M252.79,240.59c0,.5,0,1,0,1.5a41.36,41.36,0,0,0,41.36,41.35V240.59Z"/><path class="cls-7" d="M292.78,240.59c0,.5,0,1,0,1.5a41.36,41.36,0,0,0,41.36,41.35V240.59Z"/><path class="cls-7" d="M335,71.29h0a14.7,14.7,0,0,1-14.7-14.7h0A14.7,14.7,0,0,1,335,41.89h14.7v14.7A14.7,14.7,0,0,1,335,71.29Z"/><path class="cls-8" d="M360,46.3h0a14.7,14.7,0,0,1-14.7-14.7h0A14.7,14.7,0,0,1,360,16.9h14.7V31.6A14.7,14.7,0,0,1,360,46.3Z"/><path class="cls-9" d="M100.27,65.51h18.64a0,0,0,0,1,0,0V84.15a14.7,14.7,0,0,1-14.7,14.7h-3.94a14.7,14.7,0,0,1-14.7-14.7V80.21A14.7,14.7,0,0,1,100.27,65.51Z"/><path class="cls-8" d="M133.16,65.51H151.8a0,0,0,0,1,0,0V84.15a14.7,14.7,0,0,1-14.7,14.7h-3.94a14.7,14.7,0,0,1-14.7-14.7V80.21A14.7,14.7,0,0,1,133.16,65.51Z"/><path class="cls-9" d="M151.36,82.18A16.67,16.67,0,0,0,168,98.85V65.51A16.67,16.67,0,0,0,151.36,82.18Z"/><path class="cls-8" d="M168,65.51V98.85A16.67,16.67,0,0,0,184.7,82.18V65.51Z"/><ellipse class="cls-6" cx="318.66" cy="372.6" rx="14.78" ry="30.13"/><ellipse class="cls-6" cx="292.25" cy="372.6" rx="14.78" ry="30.13"/><path class="cls-8" d="M248.07,178.45c0-1-.06-2-.15-3H233.23L247,170.29a30.83,30.83,0,0,0-2.11-5.67l-16.48,6.14,12.43-12.43a31.47,31.47,0,0,0-4.28-4.28l-10.39,10.38,6.11-13.35a30.87,30.87,0,0,0-5.51-2.52l-7.31,16V147a30.58,30.58,0,0,0-6.05,0v14.69l-5.13-13.77A30.93,30.93,0,0,0,202.6,150l6.15,16.48-12.44-12.43a31.47,31.47,0,0,0-4.28,4.28l10.39,10.39-13.36-6.11a31.84,31.84,0,0,0-2.52,5.5l16,7.31H185c-.09,1-.15,2-.15,3s.06,2,.15,3h14.69l-13.77,5.13a31.57,31.57,0,0,0,2.11,5.67l16.48-6.14L192,198.58a32.05,32.05,0,0,0,4.28,4.28l10.39-10.39-6.11,13.36a32.35,32.35,0,0,0,5.51,2.52l7.31-16v17.59c1,.09,2,.14,3,.14s2-.05,3-.14V195.25L224.59,209a31.7,31.7,0,0,0,5.68-2.12l-6.14-16.48,12.43,12.44a32.05,32.05,0,0,0,4.28-4.28l-10.39-10.39,13.36,6.1a31.16,31.16,0,0,0,2.52-5.5l-16-7.31h17.58C248,180.48,248.07,179.47,248.07,178.45Z"/><circle class="cls-2" cx="216.44" cy="178.45" r="11.3" transform="translate(-35.35 54.79) rotate(-13.35)"/><polygon class="cls-8" points="135.36 30.59 130.03 24.64 130.06 32.63 127.24 25.15 124.38 32.61 124.45 24.62 119.08 30.54 122.03 23.12 114.89 26.7 120.33 20.85 112.38 21.61 119.56 18.11 111.87 15.95 119.83 15.29 113.44 10.49 121.1 12.75 116.87 5.97 123.21 10.84 121.71 2.99 125.86 9.82 127.3 1.96 128.7 9.83 132.88 3.02 131.34 10.86 137.7 6.03 133.44 12.78 141.12 10.57 134.7 15.33 142.66 16.04 134.95 18.16 142.12 21.69 134.17 20.89 139.57 26.77 132.45 23.15 135.36 30.59"/><polygon class="cls-11" points="224.65 129.65 220.03 124.49 220.06 131.41 217.61 124.94 215.13 131.4 215.2 124.48 210.55 129.61 213.11 123.18 206.92 126.28 211.63 121.21 204.74 121.87 210.96 118.84 204.3 116.97 211.19 116.39 205.66 112.24 212.3 114.19 208.63 108.32 214.12 112.54 212.83 105.74 216.42 111.66 217.67 104.85 218.88 111.66 222.5 105.76 221.17 112.56 226.68 108.37 222.99 114.22 229.64 112.3 224.08 116.43 230.97 117.04 224.3 118.88 230.51 121.94 223.62 121.24 228.3 126.34 222.13 123.2 224.65 129.65"/><polygon class="cls-6" points="380.41 272.65 375.19 266.82 375.22 274.65 372.46 267.33 369.66 274.63 369.73 266.81 364.48 272.61 367.37 265.34 360.37 268.85 365.69 263.12 357.91 263.86 364.94 260.44 357.41 258.32 365.2 257.67 358.95 252.97 366.45 255.18 362.31 248.54 368.51 253.31 367.05 245.63 371.11 252.31 372.52 244.62 373.89 252.32 377.99 245.66 376.48 253.34 382.71 248.6 378.53 255.21 386.05 253.05 379.77 257.71 387.56 258.4 380.01 260.48 387.03 263.94 379.25 263.15 384.54 268.92 377.56 265.37 380.41 272.65"/><polygon class="cls-11" points="23 274.98 17.79 269.16 17.81 276.98 15.05 269.66 12.25 276.96 12.32 269.14 7.07 274.94 9.96 267.67 2.96 271.18 8.29 265.44 0.5 266.19 7.53 262.77 0 260.65 7.8 260 1.54 255.31 9.04 257.51 4.9 250.88 11.1 255.64 9.64 247.96 13.7 254.65 15.11 246.95 16.48 254.65 20.58 247.99 19.07 255.66 25.3 250.93 21.12 257.55 28.64 255.38 22.36 260.04 30.15 260.74 22.61 262.81 29.62 266.27 21.84 265.48 27.13 271.25 20.15 267.7 23 274.98"/><path class="cls-8" d="M107,169.77a4.28,4.28,0,1,1-4.28-4.27A4.28,4.28,0,0,1,107,169.77Z"/><path class="cls-8" d="M35.07,97.12a5,5,0,1,1-5-5A5,5,0,0,1,35.07,97.12Z"/><path class="cls-8" d="M376,80a2.51,2.51,0,1,1-2.51-2.51A2.52,2.52,0,0,1,376,80Z"/><path class="cls-8" d="M380.56,114.81a5.09,5.09,0,1,1-5.09-5.09A5.09,5.09,0,0,1,380.56,114.81Z"/><circle class="cls-8" cx="234.79" cy="390.43" r="2.72"/><ellipse class="cls-11" cx="193.94" cy="338.3" rx="14.78" ry="30.13"/><ellipse class="cls-11" cx="213.51" cy="338.3" rx="14.78" ry="30.13"/><ellipse class="cls-11" cx="232.09" cy="338.3" rx="14.78" ry="30.13"/><line class="cls-5" x1="192.27" y1="320.35" x2="192.27" y2="356.26"/><line class="cls-5" x1="213.51" y1="320.35" x2="213.51" y2="356.26"/><line class="cls-5" x1="234.75" y1="320.35" x2="234.75" y2="356.26"/><path class="cls-6" d="M184.9,16.68l-.47.44a34,34,0,0,0,48.12,48.12c.15-.15.29-.31.44-.47Z"/><path class="cls-9" d="M209.19,13.06l-.27.26a20,20,0,1,0,28.33,28.33l.26-.27Z"/><g class="cls-13"><line class="cls-5" x1="175.99" y1="21.22" x2="227.28" y2="72.51"/></g><rect class="cls-7" x="13.94" y="371.59" width="151.29" height="29.13"/><ellipse class="cls-6" cx="41.98" cy="386.16" rx="12.29" ry="13.99"/><ellipse class="cls-6" cx="65.99" cy="386.16" rx="12.29" ry="13.99"/><ellipse class="cls-6" cx="89.99" cy="386.16" rx="12.29" ry="13.99"/><ellipse class="cls-6" cx="113.54" cy="386.16" rx="12.29" ry="13.99"/><ellipse class="cls-6" cx="137.09" cy="386.16" rx="12.29" ry="13.99"/><line class="cls-5" x1="38.6" y1="386.16" x2="140.39" y2="386.16"/><path class="cls-3" d="M178.83,240.8l-.28-.28L190,224.42l-20.34,7.23-.24-.23,9.89-17.69-18.75,8.82-.21-.21,9.35-18.22-18.22,9.36-.21-.21,8.82-18.76-17.69,9.89-.23-.23,7.23-20.35-16.1,11.48-.28-.28,3.86-23.72-13.79,13.79-.31.3-.39.4a46.41,46.41,0,0,0,65.63,65.63l.4-.39.31-.31,13.78-13.79Z"/><path class="cls-8" d="M111,204.72a46.42,46.42,0,0,0,58.1,58.11Z"/><line class="cls-5" x1="111.02" y1="204.72" x2="169.12" y2="262.83"/></g></g></svg>