<svg xmlns="http://www.w3.org/2000/svg" viewBox="0 0 91.98 39"><defs><style>.cls-1{fill:#1a1818;}</style></defs><title>logo</title><g id="Layer_2" data-name="Layer 2"><g id="Layer_1-2" data-name="Layer 1"><path class="cls-1" d="M27.72,30.16A13.47,13.47,0,1,1,19.5,6a13.37,13.37,0,0,1,8.22,2.81h8.1a19.5,19.5,0,1,0,0,21.32Z"/><path class="cls-1" d="M20.76,12.54c-3.07,0-5.55,1.33-5.55,3H26.32C26.32,13.87,23.82,12.54,20.76,12.54Z"/><path class="cls-1" d="M20.75,27.37c5.84,0,10.61-2.09,10.61-4.67H10.15C10.15,25.28,14.9,27.37,20.75,27.37Z"/><path class="cls-1" d="M26.31,15.52H15.21v9h11.1Z"/><path d="M44.94,21.27A3.5,3.5,0,0,1,43,24.42,5.57,5.57,0,0,1,40.4,25,13.46,13.46,0,0,1,39,24.88a6,6,0,0,1-1.11-.24,9.08,9.08,0,0,1-1.07-.42V21.43a8.93,8.93,0,0,0,1.89.72,6.82,6.82,0,0,0,1.74.25,2,2,0,0,0,.76-.11,1.06,1.06,0,0,0,.44-.31.68.68,0,0,0,.14-.44A.69.69,0,0,0,41.6,21a2.58,2.58,0,0,0-.66-.44L39.72,20a9.6,9.6,0,0,1-1.16-.61,4.34,4.34,0,0,1-.89-.73,2.91,2.91,0,0,1-.56-.95,3.81,3.81,0,0,1-.19-1.29,3,3,0,0,1,.55-1.87A3.37,3.37,0,0,1,39,13.43a6.37,6.37,0,0,1,2.28-.38,7.91,7.91,0,0,1,2,.25,10.46,10.46,0,0,1,1.62.58L44,16.29a12,12,0,0,0-1.47-.54,5.18,5.18,0,0,0-1.34-.2,1.76,1.76,0,0,0-.66.1.74.74,0,0,0-.38.26.67.67,0,0,0-.13.38.64.64,0,0,0,.22.49,2.89,2.89,0,0,0,.7.46c.33.17.78.38,1.35.64a7.18,7.18,0,0,1,1.44.82,3.23,3.23,0,0,1,.91,1.05A3.29,3.29,0,0,1,44.94,21.27Z"/><path d="M51.18,24.79H48.05v-9H45.23V13.21H54v2.56H51.18Z"/><path d="M61,24.79l-.57-2.18H56.64l-.58,2.18H52.62L56.4,13.17h4.17l3.82,11.62Zm-1.72-6.63c0-.21-.13-.5-.22-.89s-.2-.78-.3-1.19-.17-.74-.22-1c0,.26-.11.58-.2,1s-.19.77-.28,1.15-.17.7-.24,1l-.5,1.89h2.47Z"/><path d="M69,24.79H65.83v-9H63V13.21h8.77v2.56H69Z"/><path d="M82.63,20.18a5.52,5.52,0,0,1-.55,2.53,3.83,3.83,0,0,1-1.67,1.66,6,6,0,0,1-2.78.58A5,5,0,0,1,74,23.73a4.64,4.64,0,0,1-1.26-3.48v-7h3.15V20a2.75,2.75,0,0,0,.46,1.78,1.66,1.66,0,0,0,1.35.55,2,2,0,0,0,1-.24,1.45,1.45,0,0,0,.58-.77A3.85,3.85,0,0,0,79.5,20V13.21h3.13Z"/><path d="M92,21.27a3.49,3.49,0,0,1-2,3.15,5.5,5.5,0,0,1-2.58.53,13.83,13.83,0,0,1-1.39-.07,6.42,6.42,0,0,1-1.11-.24,9.81,9.81,0,0,1-1.07-.42V21.43a9,9,0,0,0,1.9.72,6.8,6.8,0,0,0,1.73.25,2.09,2.09,0,0,0,.77-.11A1,1,0,0,0,88.7,22a.72.72,0,0,0-.06-.95,2.49,2.49,0,0,0-.67-.44c-.3-.15-.7-.34-1.21-.57a10.6,10.6,0,0,1-1.17-.61,4.27,4.27,0,0,1-.88-.73,2.91,2.91,0,0,1-.56-.95A3.81,3.81,0,0,1,84,16.44a3,3,0,0,1,.55-1.87A3.26,3.26,0,0,1,86,13.43a6.31,6.31,0,0,1,2.27-.38,8,8,0,0,1,2,.25,11.27,11.27,0,0,1,1.62.58l-1,2.41a11.42,11.42,0,0,0-1.47-.54,5.11,5.11,0,0,0-1.33-.2,1.86,1.86,0,0,0-.67.1.78.78,0,0,0-.38.26.66.66,0,0,0-.12.38.67.67,0,0,0,.21.49,3,3,0,0,0,.71.46c.33.17.78.38,1.35.64a7.08,7.08,0,0,1,1.43.82,3.12,3.12,0,0,1,.91,1.05A3.29,3.29,0,0,1,92,21.27Z"/></g></g></svg>