<svg width="313" height="331" viewBox="0 0 313 331" fill="none" xmlns="http://www.w3.org/2000/svg">
<path fill-rule="evenodd" clip-rule="evenodd" d="M156.015 15.499C150.641 79.537 128.441 139.697 90.532 192.951C69.695 222.222 37.946 254.077 9.32598 274.426C-3.02202 283.206 -3.02602 283.235 8.82598 277.694C40.071 263.087 76.071 252.84 113.826 247.806C130.821 245.54 180.304 245.265 197.326 247.342C236.375 252.106 271.077 261.768 307.076 277.898C310.239 279.315 312.826 280.342 312.826 280.18C312.826 280.018 309.788 277.679 306.076 274.983C267.32 246.83 233.255 209.875 208.791 169.443C179.432 120.919 163.152 69.42 158.073 9L157.316 0L156.015 15.499ZM196.994 64.75C195.907 67.638 194.065 72.403 192.901 75.34C191.648 78.501 191.253 80.524 191.933 80.298C192.565 80.087 193.773 78.134 194.616 75.957C195.459 73.781 196.231 71.883 196.331 71.739C196.432 71.596 198.441 72.158 200.796 72.989C203.151 73.82 206.076 74.5 207.297 74.5C212.078 74.5 214.704 67.42 211.076 64.31C209.335 62.818 201.61 59.5 199.878 59.5C199.378 59.5 198.08 61.862 196.994 64.75ZM206.307 63.492C210.62 65.341 210.931 65.718 210.64 68.742C210.369 71.55 209.909 72.041 207.308 72.296C205.649 72.459 202.644 71.904 200.632 71.063L196.973 69.535L198.551 65.517C199.419 63.308 200.474 61.5 200.895 61.5C201.316 61.5 203.751 62.396 206.307 63.492ZM100.493 65.167C99.392 66.268 99.71 89.5 100.826 89.5C101.376 89.5 101.834 87.813 101.843 85.75C101.859 82.187 102.121 81.888 107.093 79.744C113.5 76.982 113.644 76.981 116.508 79.671C117.778 80.864 119.12 81.539 119.489 81.171C119.858 80.802 119.972 80.368 119.743 80.208C119.514 80.047 115.449 76.447 110.711 72.208C101.752 64.192 101.584 64.076 100.493 65.167ZM108.501 72.668L111.676 76L106.751 78.186L101.826 80.373V73.901C101.826 68.041 101.991 67.52 103.576 68.383C104.539 68.907 106.755 70.835 108.501 72.668ZM217.492 69.75C214.023 75.405 207.796 86.802 208.047 87.035C208.821 87.756 220.743 94.5 221.244 94.5C223.194 94.5 221.135 92.442 216.857 90.113C210.68 86.752 210.381 86.261 212.278 82.593C214.52 78.258 215.419 78.071 220.293 80.928C222.718 82.349 224.922 83.154 225.191 82.718C225.461 82.282 223.439 80.664 220.697 79.123C215.997 76.481 215.792 76.198 217.092 74.161C217.85 72.972 218.797 71.446 219.196 70.768C219.729 69.863 221.377 70.358 225.419 72.64C228.443 74.346 231.197 75.463 231.538 75.121C231.88 74.78 231.972 74.348 231.743 74.163C230.652 73.282 220.009 67.5 219.477 67.5C219.144 67.5 218.251 68.513 217.492 69.75ZM82.847 74.25C82.859 74.662 83.918 79.612 85.2 85.25C86.483 90.888 87.435 95.5 87.316 95.5C87.198 95.5 82.989 93.212 77.965 90.416C72.94 87.62 68.299 85.509 67.65 85.725C67.002 85.941 71.523 88.957 77.697 92.428C83.871 95.898 89.133 98.527 89.39 98.27C89.647 98.013 88.725 92.567 87.341 86.168C85.958 79.769 84.826 74.301 84.826 74.017C84.826 73.733 84.376 73.5 83.826 73.5C83.276 73.5 82.836 73.838 82.847 74.25ZM236.678 79.606L240.03 82.654L233.858 90.617C230.463 94.996 227.847 99.062 228.044 99.653C228.24 100.243 231.226 97.075 234.677 92.613C238.129 88.151 241.53 84.5 242.235 84.5C242.939 84.5 244.331 85.4 245.326 86.5C247.187 88.557 248.826 89.117 248.826 87.696C248.826 86.695 235.496 76.489 234.241 76.529C233.738 76.545 234.834 77.93 236.678 79.606ZM170.885 102C186.826 147.878 209.621 187.721 239.456 221.86C243.235 226.184 247.604 231.242 249.167 233.102L252.007 236.484L248.317 243.083C245.172 248.706 244.309 249.592 242.476 249.081C236.565 247.431 214.801 243.45 202.826 241.828C192.107 240.377 182.734 240 157.326 240C122.43 240 112.381 240.898 84.733 246.484C76.838 248.08 70.3 249.299 70.204 249.193C70.109 249.087 68.375 246.165 66.351 242.699L62.671 236.399L68.498 229.835C104.066 189.773 128.783 147.574 144.824 99.522C147.115 92.659 149.216 86.678 149.492 86.231C149.768 85.784 153.444 85.55 157.66 85.709L165.326 86L170.885 102ZM118.714 92.844C84.244 105.962 59.042 137.937 53.174 176C51.195 188.836 52.213 207.532 55.373 216.386C56.094 218.407 58.398 216.084 70.135 201.5C87.734 179.632 103.808 153.584 115.61 127.807C120.498 117.129 129.826 92.662 129.826 90.516C129.826 88.932 127.974 89.32 118.714 92.844ZM185.294 92.228C188.961 106.841 208.495 148.67 220.838 168.341C232.014 186.152 257.63 218.956 259.188 217.451C259.501 217.15 260.499 212.65 261.407 207.451C263.515 195.38 262.858 177.427 259.891 166C250.905 131.401 226.879 104.207 194.553 92.048C185.659 88.702 184.415 88.726 185.294 92.228ZM243.956 98.06C235.478 106.035 233.668 109.17 240.804 103.518C244.202 100.826 245.126 100.504 246.404 101.565C249.487 104.123 249.872 106.202 248.418 112.435C247.641 115.767 247.368 118.717 247.811 118.991C248.843 119.628 249.497 117.879 250.347 112.207C251.02 107.724 251.076 107.666 254.315 108.192C256.831 108.6 258.116 108.21 259.8 106.526C262.8 103.526 261.836 100.138 256.43 94.675L252.151 90.351L243.956 98.06ZM156.42 100.5C151.232 152.531 123.27 201.819 81.302 232.909C76.915 236.159 72.888 239.207 72.352 239.683C71.817 240.158 75.727 238.778 81.042 236.615C131.07 216.26 189.009 217.123 239.326 238.973C241.526 239.929 243.101 240.494 242.826 240.229C242.551 239.965 237.748 236.314 232.154 232.117C191.183 201.383 164.295 154.724 158.467 104.247L157.168 93L156.42 100.5ZM256.659 97.441C260.072 101.689 260.505 103.421 258.626 105.3C256.503 107.423 253.503 106.59 249.622 102.801L245.834 99.102L248.517 96.301C249.993 94.76 251.716 93.5 252.346 93.5C252.976 93.5 254.917 95.274 256.659 97.441ZM53.525 99.134C53.108 99.551 62.352 121.279 63.431 122.417C64.698 123.753 64.729 121.204 63.482 118.22C62.03 114.744 62.046 114.695 66.174 110.029C70.057 105.639 70.509 105.405 73.141 106.417C76.528 107.72 77.826 107.785 77.826 106.654C77.826 106.189 74.563 104.845 70.576 103.667C66.589 102.489 61.23 100.878 58.667 100.088C56.105 99.297 53.791 98.868 53.525 99.134ZM62.422 103.071C65.394 103.935 67.826 104.972 67.826 105.375C67.826 105.778 66.261 107.625 64.348 109.479L60.87 112.85L59.239 108.925C58.342 106.766 57.192 104.213 56.682 103.25C55.552 101.116 55.683 101.112 62.422 103.071ZM256.969 114.033C251.229 118.863 250.864 125.696 256.053 131.235C262.602 138.227 275.826 132.267 275.826 122.323C275.826 119.081 275.166 117.64 272.426 114.9C269.562 112.036 268.314 111.5 264.503 111.5C261.121 111.5 259.22 112.139 256.969 114.033ZM271.371 115.955C275.798 120.382 274.137 128.317 268.142 131.383C261.168 134.949 252.527 128.526 254.378 121.151C256.14 114.13 266.407 110.99 271.371 115.955ZM37.801 121.543C35.539 125.416 33.856 129.09 34.062 129.707C34.267 130.323 35.434 129.134 36.655 127.065C38.747 123.519 39.003 123.385 41.101 124.735C47.207 128.668 57.001 133.659 57.544 133.115C58.314 132.346 58.889 132.749 48.826 127C44.151 124.329 40.195 122.056 40.035 121.948C39.876 121.84 40.707 120.12 41.884 118.126C43.061 116.132 43.549 114.5 42.969 114.5C42.389 114.5 40.063 117.669 37.801 121.543ZM271.598 135.857C266.248 138.136 261.86 140.55 261.848 141.221C261.836 141.893 262.988 145.043 264.408 148.221C265.829 151.4 267.167 154.9 267.382 156C268.616 162.3 271.251 170.5 272.042 170.5C272.547 170.5 272.726 169.713 272.439 168.75C270.475 162.168 269.673 157.257 270.441 156.513C270.928 156.041 272.98 155.352 275.002 154.98C278.598 154.32 278.701 154.389 279.747 158.153C280.334 160.269 280.817 162.563 280.82 163.25C280.823 163.938 281.312 164.5 281.905 164.5C282.613 164.5 282.722 163.38 282.222 161.25C280.727 154.876 281.1 153.233 284.24 152.378C285.843 151.942 287.466 151.778 287.847 152.013C288.229 152.249 289.116 155.155 289.82 158.471C290.524 161.787 291.488 164.5 291.963 164.5C292.437 164.5 292.826 164.255 292.826 163.956C292.826 163.184 289.576 150.062 289.296 149.702C289.168 149.539 284.541 150.551 279.014 151.952C267.239 154.937 267.826 154.876 267.826 153.127C267.826 152.372 266.884 149.624 265.732 147.021C264.581 144.418 264.018 141.922 264.482 141.476C264.946 141.029 269.138 139.092 273.797 137.17C278.455 135.249 282.43 133.187 282.63 132.588C283.149 131.032 282.42 131.248 271.598 135.857ZM48.468 147.966C47.521 150.972 46.36 153.67 45.89 153.96C45.419 154.251 40.713 152.925 35.43 151.013C23.719 146.773 22.53 148.064 34.076 152.482C47.459 157.602 46.958 157.672 49.576 150.32C52.054 143.36 52.212 142.5 51.009 142.5C50.559 142.5 49.416 144.96 48.468 147.966ZM26.024 166.124C19.433 169.47 17.751 178.147 22.635 183.613C24.902 186.149 26.399 186.839 30.385 187.184C37.033 187.759 41.307 185.143 42.804 179.582C45.471 169.677 35.22 161.455 26.024 166.124ZM39.185 170.603C47.18 179.475 34.157 190.698 24.903 182.911C19.957 178.749 20.811 171.257 26.601 168.009C30.64 165.744 35.756 166.798 39.185 170.603ZM282.326 170.155C281.226 170.388 279.302 170.797 278.051 171.064C271.734 172.415 269.505 181.27 274.281 186.045C276.914 188.679 281.58 189.181 291.186 187.864C299.254 186.758 296.204 185.605 286.819 186.213C276.062 186.91 273.826 185.732 273.826 179.368C273.826 174.198 276.585 172.515 286.261 171.783C290.422 171.469 293.826 170.826 293.826 170.356C293.826 169.497 286.075 169.362 282.326 170.155ZM272.826 192.694C272.826 193.645 275.243 194.147 284.826 195.186L292.326 196L287.628 198.762C285.044 200.281 282.629 202.01 282.261 202.605C281.893 203.2 283.539 205.67 285.918 208.093C290.861 213.13 291.06 213.034 278.516 211.641C272.271 210.947 268.932 211.559 272.176 212.804C274.784 213.805 293.826 214.75 293.826 213.879C293.825 213.395 291.575 211.063 288.826 208.695C286.076 206.327 283.831 204.077 283.837 203.695C283.843 203.313 286.543 201.448 289.837 199.552C294.854 196.663 296.841 194.882 295.576 194.406C293.718 193.708 272.826 192.136 272.826 192.694ZM165.371 196.955C166.721 198.305 167.826 200.125 167.826 201C167.826 201.875 166.721 203.695 165.371 205.045C163.485 206.932 161.864 207.5 158.371 207.5H153.826V212C153.826 215.733 153.507 216.5 151.951 216.5C149.598 216.5 148.826 213.012 148.826 202.375V194.5H155.871C162.018 194.5 163.23 194.813 165.371 196.955ZM142.371 197.955C143.721 199.305 144.826 201.125 144.826 202C144.826 204.764 140.435 208.147 135.906 208.871L131.573 209.564L132.077 214.032C132.536 218.103 132.388 218.5 130.413 218.5C128.449 218.5 128.084 217.556 126.499 208.371C125.538 202.799 125.002 197.991 125.307 197.685C125.95 197.043 133.028 195.808 137.121 195.625C138.878 195.547 140.829 196.412 142.371 197.955ZM187.677 196.598C189.8 197.338 190.826 198.35 190.826 199.705C190.826 201.21 190.387 201.544 189.076 201.037C180.088 197.56 172.857 202.332 175.918 209.722C177.405 213.311 179.605 214.5 184.76 214.5C189.113 214.5 189.14 214.519 188.219 216.918C187.413 219.018 181.661 218.99 177.183 216.865C168.65 212.816 168.663 200.654 177.204 196.937C181.054 195.261 183.606 195.179 187.677 196.598ZM22.212 201.024C19.893 203.342 19.744 204.013 20.382 209.274C21.234 216.303 21.409 216.62 24.137 216.052C25.341 215.802 30.264 215.079 35.076 214.445C39.889 213.812 43.826 212.862 43.826 212.335C43.826 211.763 41.969 211.656 39.215 212.069C33.935 212.861 32.866 211.961 32.841 206.705C32.825 203.14 29.14 198.5 26.326 198.5C25.451 198.5 23.599 199.636 22.212 201.024ZM152.826 199.918C152.826 202.974 154.13 204.5 156.742 204.5C160.337 204.5 163.326 202.247 162.52 200.145C161.683 197.963 152.826 197.756 152.826 199.918ZM130.477 200.256C130.22 200.671 130.228 202.152 130.494 203.546C130.919 205.768 131.396 206.032 134.367 205.685C141.254 204.881 141.732 199.5 134.916 199.5C132.732 199.5 130.734 199.84 130.477 200.256ZM29.255 202.071C30.119 202.936 30.826 204.454 30.826 205.446C30.826 206.438 31.097 208.607 31.429 210.266C32.022 213.232 31.957 213.288 27.47 213.645L22.908 214.008L22.231 208.59C21.659 204.008 21.837 202.965 23.381 201.836C25.773 200.087 27.332 200.149 29.255 202.071ZM120.826 258.032C104.232 259.924 83.759 263.752 83.558 265C83.47 265.55 87.206 269.075 91.862 272.834C112.875 289.799 142.18 298.53 168.027 295.525C187.364 293.277 205.003 286.468 219.441 275.68C229.109 268.455 232.72 264.747 230.726 264.092C227.856 263.149 217.923 261.329 204.826 259.347C186.906 256.634 139.586 255.894 120.826 258.032ZM233.826 285.519V292.538L231.076 291.867C229.564 291.497 226.65 290.613 224.602 289.901C222.527 289.18 220.635 289 220.329 289.495C220.027 289.984 222.603 291.16 226.053 292.11C231.101 293.499 233.15 294.72 236.547 298.364C241.571 303.755 243.048 303.471 238.849 297.922C236.16 294.368 235.879 293.272 235.854 286.25C235.838 281.769 235.404 278.5 234.826 278.5C234.254 278.5 233.826 281.506 233.826 285.519ZM80.326 285.454C74.311 287.942 71.19 296.435 74.172 302.202C75.956 305.651 82.115 309.025 84.646 307.94C85.917 307.395 85.479 307.029 82.842 306.438C76.21 304.951 73.106 298.368 76.021 291.972C77.327 289.106 81.52 286.5 84.826 286.5C87.987 286.5 92.601 289.216 93.327 291.504C93.681 292.618 94.389 293.27 94.901 292.954C96.37 292.045 94.051 288.608 90.512 286.45C87.166 284.41 83.676 284.068 80.326 285.454ZM214.556 293.104C214.205 293.454 215.273 296.424 216.929 299.703C222.847 311.428 223.135 311.173 210.916 305.045C204.945 302.05 199.816 299.844 199.518 300.142C199.043 300.616 207.151 319.158 208.362 320.369C208.617 320.625 209.067 320.593 209.361 320.299C209.655 320.004 208.299 316.26 206.348 311.978C204.396 307.696 203.002 303.991 203.248 303.744C203.495 303.498 208.197 305.696 213.697 308.629C219.197 311.562 224.038 313.622 224.454 313.205C224.871 312.788 223.225 308.297 220.797 303.224C215.818 292.821 215.444 292.215 214.556 293.104ZM101.856 297.779C100.498 298.467 98.36 300.552 97.106 302.412C89.236 314.09 104.511 326.744 114.231 316.599C119.838 310.747 118.279 300.84 111.292 297.921C107.136 296.185 105.069 296.154 101.856 297.779ZM112.903 301.423C119.043 307.564 114.649 318.42 105.999 318.478C101.406 318.508 96.813 313.909 96.861 309.327C96.962 299.905 106.624 295.144 112.903 301.423ZM125.943 310.75C124.02 321.799 123.508 327.033 124.435 326.175C124.925 325.721 126.029 321.446 126.888 316.675L128.45 308L131.738 313.759L135.027 319.518L139.927 315.416C145.503 310.747 145.488 310.716 143.418 322.28C142.701 326.284 142.5 329.798 142.97 330.089C143.441 330.38 143.826 330.453 143.826 330.252C143.826 330.051 144.726 324.987 145.826 319C146.926 313.013 147.826 307.976 147.826 307.807C147.826 306.467 144.924 308.259 140.632 312.25C137.823 314.863 135.362 316.55 135.165 316C134.161 313.201 128.67 304.5 127.908 304.5C127.426 304.5 126.542 307.313 125.943 310.75ZM182.337 306.75C181.625 309.788 177.826 328.62 177.826 329.11C177.826 329.325 178.236 329.5 178.738 329.5C179.24 329.5 179.945 327.753 180.306 325.617C180.956 321.773 181.025 321.721 187.114 320.523C193.264 319.313 193.265 319.313 195.501 322.117C196.731 323.66 198.019 324.64 198.364 324.295C199.096 323.563 184.996 304.5 183.723 304.5C183.251 304.5 182.627 305.512 182.337 306.75ZM154.832 310.75C154.846 318.172 156.183 330.5 156.974 330.5C157.443 330.5 157.826 328.308 157.826 325.629V320.758L163.071 320.062C169.178 319.252 171.826 317.267 171.826 313.5C171.826 309.101 169.07 307.5 161.497 307.5H154.826L154.832 310.75ZM188.611 312.85C190.394 315.333 191.467 317.604 190.994 317.896C189.027 319.112 181.826 319.725 181.826 318.677C181.826 315.978 184.067 307.531 184.682 307.911C185.06 308.144 186.828 310.367 188.611 312.85ZM168.626 310.7C169.286 311.36 169.826 312.946 169.826 314.225C169.826 316.982 166.608 318.5 160.761 318.5H156.826V314V309.5H162.126C165.041 309.5 167.966 310.04 168.626 310.7Z" fill="black"/>
</svg>
