<svg width="145" height="145" viewBox="0 0 145 145" fill="none" xmlns="http://www.w3.org/2000/svg">
<path d="M82.122 47.1358L82.4341 48.5171L83.6314 47.761L120.556 24.444L97.239 61.3686L96.4829 62.5659L97.8642 62.878L140.461 72.5L97.8642 82.122L96.4829 82.4341L97.239 83.6314L120.556 120.556L83.6314 97.239L82.4341 96.4829L82.122 97.8642L72.5 140.461L62.878 97.8642L62.5659 96.4829L61.3686 97.239L24.444 120.556L47.761 83.6314L48.5171 82.4341L47.1358 82.122L4.53858 72.5L47.1358 62.878L48.5171 62.5659L47.761 61.3686L24.444 24.444L61.3686 47.761L62.5659 48.5171L62.878 47.1358L72.5 4.53858L82.122 47.1358Z" fill="#C4A1FF" stroke="black" stroke-width="2"/>
</svg>
