<svg width="57" height="57" viewBox="0 0 57 57" fill="none" xmlns="http://www.w3.org/2000/svg">
<path fill-rule="evenodd" clip-rule="evenodd" d="M24 2.031C24 4.797 21.336 5.614 19.054 3.549C17.325 1.984 16.945 1.977 14.091 3.453C11.492 4.797 11.039 5.566 11.25 8.276C11.487 11.337 11.337 11.487 8.276 11.25C5.57 11.04 4.796 11.493 3.463 14.072C2.224 16.468 2.135 17.458 3.06 18.572C4.726 20.58 5.618 20.389 9.809 17.124C16.871 11.621 27.256 10.307 34.5 14C39.515 16.557 42.64 16.541 44.026 13.951C45.363 11.454 43.846 6.075 41.106 3.596C39.481 2.125 39.152 2.112 38.021 3.475C36.148 5.732 34.076 5.33 33 2.5C32.203 0.405 31.398 0 28.025 0C24.646 0 24 0.326 24 2.031ZM48.321 12.079C47.659 12.741 47.441 15.624 47.756 19.544C48.2 25.076 47.905 26.673 45.559 31.47C43.899 34.862 40.94 38.618 37.924 41.161C35.216 43.445 33 46.11 33 47.085C33 50.269 35.845 52 41.075 52H46.008L45.754 48.75C45.512 45.659 45.657 45.512 48.724 45.75C51.434 45.961 52.203 45.508 53.547 42.909C55.023 40.055 55.016 39.675 53.451 37.946C51.386 35.664 52.203 33 54.969 33C56.674 33 57 32.354 57 28.975C57 25.602 56.595 24.797 54.5 24C51.618 22.904 51.341 21.386 53.573 18.92C55.003 17.339 55.001 16.903 53.547 14.091C51.889 10.885 50.175 10.225 48.321 12.079ZM16.527 17.563C12.547 19.638 12.508 19.703 14.1 21.621C14.862 22.539 16.037 25.992 16.711 29.295C18.034 35.782 21.663 41.894 25.802 44.606C27.951 46.014 28.476 46.065 28.85 44.903C29.099 44.132 31.926 41.025 35.132 38C40.994 32.47 44 27.228 44 22.532C44 20.336 43.564 20 40.711 20C38.903 20 35.658 19.1 33.5 18C28.754 15.58 20.725 15.373 16.527 17.563ZM5.217 23.561C3.003 25.111 0 29.941 0 31.95C0 32.528 0.914 33 2.031 33C4.864 33 5.596 35.684 3.42 38.088C1.712 39.976 1.701 40.269 3.246 42.801C4.501 44.856 5.682 45.5 8.197 45.5C11.268 45.5 11.5 45.732 11.5 48.803C11.5 51.318 12.144 52.499 14.199 53.754C16.731 55.299 17.024 55.288 18.912 53.58C21.336 51.386 24 52.143 24 55.026C24 56.865 24.508 57.078 28.241 56.807C34.473 56.356 34.477 53.782 28.25 50.627C22.806 47.868 16.471 41.412 14.526 36.64C13.822 34.913 12.938 31.364 12.562 28.753C12.112 25.626 11.239 23.663 10.005 23.003C7.642 21.738 7.855 21.713 5.217 23.561ZM32.859 26.773C34.075 29.094 32.601 32.674 30.103 33.467C27.692 34.233 24.489 32.716 23.595 30.387C21.29 24.38 29.855 21.039 32.859 26.773Z" fill="#00ADEF"/>
</svg>
